<svg xmlns="http://www.w3.org/2000/svg" viewBox="0 0 920 260" role="img" aria-labelledby="title desc">
  <title id="title">Ell Vii's Automations logo</title>
  <desc id="desc">Ell Vii's Automations logo with smart websites better follow-up tagline.</desc>
  <defs>
    <linearGradient id="blue" x1="0" y1="0" x2="1" y2="1">
      <stop offset="0" stop-color="#061a44"/>
      <stop offset="0.55" stop-color="#0d49d9"/>
      <stop offset="1" stop-color="#1d74ff"/>
    </linearGradient>
    <linearGradient id="gold" x1="0" y1="0" x2="1" y2="1">
      <stop offset="0" stop-color="#f6dc86"/>
      <stop offset="0.55" stop-color="#c99522"/>
      <stop offset="1" stop-color="#7f560c"/>
    </linearGradient>
    <filter id="glow" x="-40%" y="-40%" width="180%" height="180%">
      <feGaussianBlur stdDeviation="4" result="b"/>
      <feMerge><feMergeNode in="b"/><feMergeNode in="SourceGraphic"/></feMerge>
    </filter>
  </defs>
  <rect width="920" height="260" rx="18" fill="#fff"/>
  <g transform="translate(38 40)">
    <path d="M95 20 A80 80 0 1 0 162 118" fill="none" stroke="#061a44" stroke-width="18"/>
    <path d="M165 118 A80 80 0 0 0 182 74" fill="none" stroke="url(#gold)" stroke-width="18"/>
    <path d="M25 95 H190 M105 18 V178" stroke="url(#gold)" stroke-width="7" stroke-linecap="round"/>
    <circle cx="25" cy="95" r="11" fill="#fff" stroke="#0d49d9" stroke-width="5"/>
    <circle cx="105" cy="18" r="11" fill="#fff" stroke="#a87912" stroke-width="5"/>
    <circle cx="190" cy="95" r="11" fill="#fff" stroke="#a87912" stroke-width="5"/>
    <path d="M55 178 C80 96 112 70 170 38 L158 89 C122 107 87 138 55 178Z" fill="url(#blue)" stroke="#061a44" stroke-width="5"/>
    <path d="M70 176 C98 126 124 105 169 83" fill="none" stroke="#63a1ff" stroke-width="7" stroke-linecap="round" filter="url(#glow)"/>
    <circle cx="105" cy="98" r="20" fill="#fff" stroke="#0d49d9" stroke-width="7" filter="url(#glow)"/>
  </g>
  <g transform="translate(285 86)">
    <text x="0" y="48" font-family="Inter, Arial, sans-serif" font-size="58" font-weight="700" fill="#061a44">Ell Vii’s </text>
    <text x="292" y="48" font-family="Inter, Arial, sans-serif" font-size="58" font-weight="800" fill="#1d74ff">Automations</text>
    <line x1="2" y1="86" x2="88" y2="86" stroke="#c99522" stroke-width="4"/>
    <text x="112" y="97" font-family="Inter, Arial, sans-serif" font-size="28" font-weight="600" fill="#07182c" letter-spacing="5">Smart Websites Better Follow-Up</text>
    <line x1="690" y1="86" x2="785" y2="86" stroke="#c99522" stroke-width="4"/>
  </g>
</svg>