<svg xmlns="http://www.w3.org/2000/svg" viewBox="0 0 1200 1200" role="img" aria-labelledby="title desc">
<title id="title">Kingdom Missions International Logo</title>
<desc id="desc">Gold KMI globe emblem with laurel branches and Kingdom Missions International text.</desc>
<defs>
<radialGradient id="bg" cx="50%" cy="40%" r="70%"><stop offset="0" stop-color="#14324f"/><stop offset="0.55" stop-color="#07182c"/><stop offset="1" stop-color="#020711"/></radialGradient>
<radialGradient id="globe" cx="46%" cy="35%" r="60%"><stop offset="0" stop-color="#fff6c7"/><stop offset="0.28" stop-color="#f2cf69"/><stop offset="0.65" stop-color="#8c6428"/><stop offset="1" stop-color="#2a1b0c"/></radialGradient>
<linearGradient id="gold" x1="0" y1="0" x2="1" y2="1"><stop offset="0" stop-color="#fff6bf"/><stop offset="0.32" stop-color="#e7b94a"/><stop offset="0.62" stop-color="#8a5418"/><stop offset="1" stop-color="#f8d76d"/></linearGradient>
<linearGradient id="gold2" x1="0" y1="0" x2="0" y2="1"><stop offset="0" stop-color="#fff8cc"/><stop offset="0.35" stop-color="#d99b27"/><stop offset="0.7" stop-color="#5a2e0d"/><stop offset="1" stop-color="#f5c84e"/></linearGradient>
<filter id="shadow" x="-35%" y="-35%" width="170%" height="170%"><feDropShadow dx="0" dy="14" stdDeviation="9" flood-color="#000" flood-opacity="0.65"/></filter>
<filter id="glow" x="-60%" y="-60%" width="220%" height="220%"><feGaussianBlur stdDeviation="8" result="b"/><feMerge><feMergeNode in="b"/><feMergeNode in="SourceGraphic"/></feMerge></filter>
<path id="leaf" d="M0 0 C34 -13 67 -4 91 22 C55 31 24 23 0 0Z"/>
</defs>
<rect width="1200" height="1200" fill="url(#bg)"/>
<g filter="url(#glow)"><path d="M600 0 L652 230 H548 Z" fill="#fff0a1" opacity=".96"/><circle cx="600" cy="222" r="56" fill="#fff6bc"/><circle cx="600" cy="222" r="150" fill="none" stroke="#f6d66a" stroke-width="17" opacity=".22"/></g>
<g opacity=".98"><g transform="translate(108 212) rotate(-18)"><path d="M145 715 C35 565 28 305 170 90" fill="none" stroke="url(#gold)" stroke-width="16" stroke-linecap="round"/><g fill="url(#gold)" stroke="#5a320e" stroke-width="4"><use href="#leaf" transform="translate(92 620) rotate(-70) scale(1.15)"/><use href="#leaf" transform="translate(66 535) rotate(-60) scale(1.12)"/><use href="#leaf" transform="translate(54 450) rotate(-49) scale(1.08)"/><use href="#leaf" transform="translate(56 370) rotate(-38)"/><use href="#leaf" transform="translate(74 292) rotate(-27) scale(.96)"/><use href="#leaf" transform="translate(108 218) rotate(-15) scale(.92)"/><use href="#leaf" transform="translate(150 150) rotate(0) scale(.88)"/></g></g><g transform="translate(1092 212) scale(-1 1) rotate(-18)"><path d="M145 715 C35 565 28 305 170 90" fill="none" stroke="url(#gold)" stroke-width="16" stroke-linecap="round"/><g fill="url(#gold)" stroke="#5a320e" stroke-width="4"><use href="#leaf" transform="translate(92 620) rotate(-70) scale(1.15)"/><use href="#leaf" transform="translate(66 535) rotate(-60) scale(1.12)"/><use href="#leaf" transform="translate(54 450) rotate(-49) scale(1.08)"/><use href="#leaf" transform="translate(56 370) rotate(-38)"/><use href="#leaf" transform="translate(74 292) rotate(-27) scale(.96)"/><use href="#leaf" transform="translate(108 218) rotate(-15) scale(.92)"/><use href="#leaf" transform="translate(150 150) rotate(0) scale(.88)"/></g></g></g>
<g filter="url(#shadow)"><circle cx="600" cy="485" r="325" fill="url(#globe)" stroke="#f5d469" stroke-width="12"/><circle cx="600" cy="485" r="326" fill="none" stroke="#fff0a8" stroke-width="3" opacity=".82"/><g stroke="#ffe48b" stroke-width="3" opacity=".55" fill="none"><path d="M300 420 C430 350 770 350 900 420"/><path d="M300 550 C430 620 770 620 900 550"/><path d="M600 160 C485 315 485 660 600 812"/><path d="M600 160 C715 315 715 660 600 812"/><path d="M310 485 H890"/><path d="M365 305 L835 660"/><path d="M835 305 L365 660"/></g><g fill="#1f150a" opacity=".47"><path d="M420 290 C500 250 585 255 642 310 C572 318 520 348 490 394 C455 360 425 330 420 290Z"/><path d="M704 315 C770 310 810 335 842 382 C782 398 748 430 720 480 C690 430 680 372 704 315Z"/><path d="M390 560 C460 530 532 550 582 610 C520 650 445 646 390 560Z"/><path d="M695 590 C780 560 835 585 870 645 C795 690 728 670 695 590Z"/></g><g filter="url(#glow)" fill="#fff0a6"><circle cx="350" cy="430" r="10"/><circle cx="480" cy="320" r="9"/><circle cx="630" cy="360" r="8"/><circle cx="760" cy="435" r="10"/><circle cx="475" cy="625" r="10"/><circle cx="650" cy="700" r="9"/><circle cx="820" cy="610" r="8"/></g><text x="600" y="594" text-anchor="middle" font-family="Georgia, 'Times New Roman', serif" font-size="238" font-weight="900" fill="url(#gold2)" stroke="#4d270b" stroke-width="7" letter-spacing="-10">KMI</text><rect x="340" y="765" width="520" height="34" rx="10" fill="url(#gold)" stroke="#4b2b0f" stroke-width="5"/><rect x="310" y="803" width="580" height="54" rx="10" fill="#5b3414" stroke="#d5a83a" stroke-width="5"/><rect x="276" y="857" width="648" height="42" rx="12" fill="url(#gold)" stroke="#4b2b0f" stroke-width="5"/></g>
<text x="600" y="1082" text-anchor="middle" font-family="Georgia, 'Times New Roman', serif" font-size="67" font-weight="900" fill="url(#gold)" stroke="#21150c" stroke-width="2" letter-spacing="1.2">Kingdom Missions International</text>
</svg>