<svg xmlns="http://www.w3.org/2000/svg" viewBox="0 0 720 220" role="img" aria-labelledby="title desc">
  <title id="title">Kingdom Mission International logo concept</title>
  <desc id="desc">Gold monogram logo with a cross, globe, and ministry mark.</desc>
  <defs><linearGradient id="gold" x1="0" y1="0" x2="1" y2="1"><stop offset="0" stop-color="#f8e8a5"/><stop offset="0.45" stop-color="#d5a83a"/><stop offset="1" stop-color="#8f6420"/></linearGradient></defs>
  <rect width="720" height="220" rx="28" fill="#f7efe3"/>
  <g transform="translate(34 24)">
    <circle cx="86" cy="86" r="76" fill="#3f4a35"/>
    <circle cx="86" cy="86" r="64" fill="none" stroke="url(#gold)" stroke-width="5"/>
    <path d="M86 28v68M64 52h44" stroke="url(#gold)" stroke-width="9" stroke-linecap="round"/>
    <path d="M43 104c18 24 68 24 86 0" fill="none" stroke="url(#gold)" stroke-width="5" stroke-linecap="round"/>
    <path d="M40 86c23-18 70-18 93 0M86 22c-22 27-22 101 0 128M86 22c22 27 22 101 0 128" fill="none" stroke="#f4d97b" stroke-width="3" opacity="0.9"/>
    <circle cx="58" cy="122" r="6" fill="#f8e8a5"/><circle cx="114" cy="122" r="6" fill="#f8e8a5"/>
  </g>
  <g transform="translate(200 49)">
    <text x="0" y="47" font-family="Georgia, serif" font-size="42" font-weight="700" fill="#3b2a17" letter-spacing="1.2">Kingdom Mission</text>
    <text x="0" y="92" font-family="Georgia, serif" font-size="34" font-weight="700" fill="#8f6420" letter-spacing="3">INTERNATIONAL</text>
    <line x1="0" y1="111" x2="440" y2="111" stroke="url(#gold)" stroke-width="4" stroke-linecap="round"/>
    <text x="0" y="143" font-family="Arial, sans-serif" font-size="16" fill="#5e503f" letter-spacing="1.1">Loving to Learn • Marital Ministry • Global Referral Agency</text>
  </g>
</svg>
